<?xml version="1.0" standalone="no"?>
<!DOCTYPE svg PUBLIC "-//W3C//DTD SVG 20010904//EN"
 "http://www.w3.org/TR/2001/REC-SVG-20010904/DTD/svg10.dtd">
<svg version="1.0" xmlns="http://www.w3.org/2000/svg"
 width="359.000000pt" height="359.000000pt" viewBox="0 0 359.000000 359.000000"
 preserveAspectRatio="xMidYMid meet">

<g transform="translate(0.000000,359.000000) scale(0.100000,-0.100000)"
fill="#000000" stroke="none">
<path d="M707 2516 c-37 -13 -89 -38 -116 -55 -26 -17 -53 -31 -58 -31 -6 0
-40 -13 -75 -29 -66 -30 -110 -69 -127 -112 -8 -22 -17 -27 -63 -32 -29 -4
-67 -7 -84 -7 -26 0 -44 -14 -44 -34 0 -1 26 1 58 5 112 14 125 12 143 -23 21
-44 51 -63 144 -94 89 -28 152 -50 207 -70 56 -20 156 -34 203 -27 35 4 42 9
38 24 -8 31 46 187 66 194 38 12 99 -33 115 -83 5 -14 22 -17 108 -17 89 0
109 -4 144 -24 22 -12 45 -31 51 -41 11 -17 73 -214 226 -723 l72 -237 224 2
224 3 110 384 c61 211 113 378 116 370 2 -8 53 -180 112 -384 l106 -370 221
-3 221 -2 30 97 c16 54 55 181 86 283 31 102 89 293 130 425 143 470 165 544
165 554 0 8 -69 11 -213 11 l-214 0 -108 -410 c-60 -226 -112 -407 -115 -403
-4 5 -58 189 -121 410 l-114 403 -190 0 -190 0 -114 -403 c-63 -221 -117 -406
-121 -410 -4 -5 -17 29 -29 75 -120 472 -127 490 -216 586 -124 134 -225 164
-522 154 -59 -2 -63 -4 -63 -26 0 -31 -40 -88 -73 -104 -47 -23 -63 -9 -91 79
-14 44 -26 89 -26 100 0 17 -7 19 -82 19 -62 0 -101 -7 -151 -24z"/>
</g>
</svg>
